<svg id="visual" viewBox="0 0 900 600" width="900" height="600" xmlns="http://www.w3.org/2000/svg" xmlns:xlink="http://www.w3.org/1999/xlink" version="1.1"><rect x="0" y="0" width="900" height="600" fill="#0e97ff"></rect><path d="M0 67L12.5 67C25 67 50 67 75 61.7C100 56.3 125 45.7 150 47.3C175 49 200 63 225 65.8C250 68.7 275 60.3 300 63.3C325 66.3 350 80.7 375 81.5C400 82.3 425 69.7 450 69.5C475 69.3 500 81.7 525 81.3C550 81 575 68 600 64.8C625 61.7 650 68.3 675 72.5C700 76.7 725 78.3 750 81.8C775 85.3 800 90.7 825 89.7C850 88.7 875 81.3 887.5 77.7L900 74L900 601L887.5 601C875 601 850 601 825 601C800 601 775 601 750 601C725 601 700 601 675 601C650 601 625 601 600 601C575 601 550 601 525 601C500 601 475 601 450 601C425 601 400 601 375 601C350 601 325 601 300 601C275 601 250 601 225 601C200 601 175 601 150 601C125 601 100 601 75 601C50 601 25 601 12.5 601L0 601Z" fill="#4178cd"></path><path d="M0 140L12.5 131C25 122 50 104 75 104.8C100 105.7 125 125.3 150 130.2C175 135 200 125 225 122.7C250 120.3 275 125.7 300 131C325 136.3 350 141.7 375 141.3C400 141 425 135 450 124C475 113 500 97 525 93.5C550 90 575 99 600 103.8C625 108.7 650 109.3 675 112.5C700 115.7 725 121.3 750 122.5C775 123.7 800 120.3 825 116.5C850 112.7 875 108.3 887.5 106.2L900 104L900 601L887.5 601C875 601 850 601 825 601C800 601 775 601 750 601C725 601 700 601 675 601C650 601 625 601 600 601C575 601 550 601 525 601C500 601 475 601 450 601C425 601 400 601 375 601C350 601 325 601 300 601C275 601 250 601 225 601C200 601 175 601 150 601C125 601 100 601 75 601C50 601 25 601 12.5 601L0 601Z" fill="#4070c4"></path><path d="M0 171L12.5 173.8C25 176.7 50 182.3 75 183.3C100 184.3 125 180.7 150 177.7C175 174.7 200 172.3 225 167C250 161.7 275 153.3 300 150.2C325 147 350 149 375 156C400 163 425 175 450 173.5C475 172 500 157 525 157C550 157 575 172 600 170.7C625 169.3 650 151.7 675 150C700 148.3 725 162.7 750 167.3C775 172 800 167 825 168.8C850 170.7 875 179.3 887.5 183.7L900 188L900 601L887.5 601C875 601 850 601 825 601C800 601 775 601 750 601C725 601 700 601 675 601C650 601 625 601 600 601C575 601 550 601 525 601C500 601 475 601 450 601C425 601 400 601 375 601C350 601 325 601 300 601C275 601 250 601 225 601C200 601 175 601 150 601C125 601 100 601 75 601C50 601 25 601 12.5 601L0 601Z" fill="#3e69bc"></path><path d="M0 181L12.5 180C25 179 50 177 75 184.7C100 192.3 125 209.7 150 209.8C175 210 200 193 225 185.7C250 178.3 275 180.7 300 185.8C325 191 350 199 375 203.3C400 207.7 425 208.3 450 204.2C475 200 500 191 525 184.7C550 178.3 575 174.7 600 176.7C625 178.7 650 186.3 675 188.3C700 190.3 725 186.7 750 190.2C775 193.7 800 204.3 825 207.5C850 210.7 875 206.3 887.5 204.2L900 202L900 601L887.5 601C875 601 850 601 825 601C800 601 775 601 750 601C725 601 700 601 675 601C650 601 625 601 600 601C575 601 550 601 525 601C500 601 475 601 450 601C425 601 400 601 375 601C350 601 325 601 300 601C275 601 250 601 225 601C200 601 175 601 150 601C125 601 100 601 75 601C50 601 25 601 12.5 601L0 601Z" fill="#3d61b3"></path><path d="M0 262L12.5 254.7C25 247.3 50 232.7 75 232C100 231.3 125 244.7 150 249.3C175 254 200 250 225 245.8C250 241.7 275 237.3 300 232.5C325 227.7 350 222.3 375 219.7C400 217 425 217 450 223C475 229 500 241 525 244.2C550 247.3 575 241.7 600 245.5C625 249.3 650 262.7 675 259.7C700 256.7 725 237.3 750 232.3C775 227.3 800 236.7 825 241.2C850 245.7 875 245.3 887.5 245.2L900 245L900 601L887.5 601C875 601 850 601 825 601C800 601 775 601 750 601C725 601 700 601 675 601C650 601 625 601 600 601C575 601 550 601 525 601C500 601 475 601 450 601C425 601 400 601 375 601C350 601 325 601 300 601C275 601 250 601 225 601C200 601 175 601 150 601C125 601 100 601 75 601C50 601 25 601 12.5 601L0 601Z" fill="#3b5aaa"></path><path d="M0 306L12.5 307.5C25 309 50 312 75 311.7C100 311.3 125 307.7 150 307.5C175 307.3 200 310.7 225 304.3C250 298 275 282 300 278.8C325 275.7 350 285.3 375 292.8C400 300.3 425 305.7 450 303.5C475 301.3 500 291.7 525 284.3C550 277 575 272 600 268.7C625 265.3 650 263.7 675 269.2C700 274.7 725 287.3 750 296.3C775 305.3 800 310.7 825 312.5C850 314.3 875 312.7 887.5 311.8L900 311L900 601L887.5 601C875 601 850 601 825 601C800 601 775 601 750 601C725 601 700 601 675 601C650 601 625 601 600 601C575 601 550 601 525 601C500 601 475 601 450 601C425 601 400 601 375 601C350 601 325 601 300 601C275 601 250 601 225 601C200 601 175 601 150 601C125 601 100 601 75 601C50 601 25 601 12.5 601L0 601Z" fill="#3953a1"></path><path d="M0 362L12.5 353.2C25 344.3 50 326.7 75 318C100 309.3 125 309.7 150 316.7C175 323.7 200 337.3 225 339.3C250 341.3 275 331.7 300 324.2C325 316.7 350 311.3 375 312.5C400 313.7 425 321.3 450 326.8C475 332.3 500 335.7 525 338.7C550 341.7 575 344.3 600 342C625 339.7 650 332.3 675 329.7C700 327 725 329 750 334C775 339 800 347 825 348C850 349 875 343 887.5 340L900 337L900 601L887.5 601C875 601 850 601 825 601C800 601 775 601 750 601C725 601 700 601 675 601C650 601 625 601 600 601C575 601 550 601 525 601C500 601 475 601 450 601C425 601 400 601 375 601C350 601 325 601 300 601C275 601 250 601 225 601C200 601 175 601 150 601C125 601 100 601 75 601C50 601 25 601 12.5 601L0 601Z" fill="#374b99"></path><path d="M0 391L12.5 390.7C25 390.3 50 389.7 75 388.5C100 387.3 125 385.7 150 385.7C175 385.7 200 387.3 225 385C250 382.7 275 376.3 300 370.7C325 365 350 360 375 358C400 356 425 357 450 357.2C475 357.3 500 356.7 525 358.8C550 361 575 366 600 368.7C625 371.3 650 371.7 675 376.7C700 381.7 725 391.3 750 396.5C775 401.7 800 402.3 825 402.7C850 403 875 403 887.5 403L900 403L900 601L887.5 601C875 601 850 601 825 601C800 601 775 601 750 601C725 601 700 601 675 601C650 601 625 601 600 601C575 601 550 601 525 601C500 601 475 601 450 601C425 601 400 601 375 601C350 601 325 601 300 601C275 601 250 601 225 601C200 601 175 601 150 601C125 601 100 601 75 601C50 601 25 601 12.5 601L0 601Z" fill="#354490"></path><path d="M0 397L12.5 404.3C25 411.7 50 426.3 75 432.2C100 438 125 435 150 434.5C175 434 200 436 225 437.2C250 438.3 275 438.7 300 439C325 439.3 350 439.7 375 436.2C400 432.7 425 425.3 450 423.3C475 421.3 500 424.7 525 426C550 427.3 575 426.7 600 423.8C625 421 650 416 675 414.2C700 412.3 725 413.7 750 413.3C775 413 800 411 825 411.3C850 411.7 875 414.3 887.5 415.7L900 417L900 601L887.5 601C875 601 850 601 825 601C800 601 775 601 750 601C725 601 700 601 675 601C650 601 625 601 600 601C575 601 550 601 525 601C500 601 475 601 450 601C425 601 400 601 375 601C350 601 325 601 300 601C275 601 250 601 225 601C200 601 175 601 150 601C125 601 100 601 75 601C50 601 25 601 12.5 601L0 601Z" fill="#333d87"></path><path d="M0 477L12.5 477.5C25 478 50 479 75 478.8C100 478.7 125 477.3 150 476.3C175 475.3 200 474.7 225 474.5C250 474.3 275 474.7 300 471.8C325 469 350 463 375 460.3C400 457.7 425 458.3 450 459C475 459.7 500 460.3 525 458C550 455.7 575 450.3 600 454.2C625 458 650 471 675 473C700 475 725 466 750 465.2C775 464.3 800 471.7 825 473.8C850 476 875 473 887.5 471.5L900 470L900 601L887.5 601C875 601 850 601 825 601C800 601 775 601 750 601C725 601 700 601 675 601C650 601 625 601 600 601C575 601 550 601 525 601C500 601 475 601 450 601C425 601 400 601 375 601C350 601 325 601 300 601C275 601 250 601 225 601C200 601 175 601 150 601C125 601 100 601 75 601C50 601 25 601 12.5 601L0 601Z" fill="#30377f"></path><path d="M0 503L12.5 501C25 499 50 495 75 492.8C100 490.7 125 490.3 150 491.2C175 492 200 494 225 498.7C250 503.3 275 510.7 300 513.3C325 516 350 514 375 510.3C400 506.7 425 501.3 450 503.5C475 505.7 500 515.3 525 514.5C550 513.7 575 502.3 600 503.3C625 504.3 650 517.7 675 522.8C700 528 725 525 750 523.5C775 522 800 522 825 516.5C850 511 875 500 887.5 494.5L900 489L900 601L887.5 601C875 601 850 601 825 601C800 601 775 601 750 601C725 601 700 601 675 601C650 601 625 601 600 601C575 601 550 601 525 601C500 601 475 601 450 601C425 601 400 601 375 601C350 601 325 601 300 601C275 601 250 601 225 601C200 601 175 601 150 601C125 601 100 601 75 601C50 601 25 601 12.5 601L0 601Z" fill="#2e3076"></path><path d="M0 562L12.5 561.7C25 561.3 50 560.7 75 560.3C100 560 125 560 150 555C175 550 200 540 225 536.5C250 533 275 536 300 539.7C325 543.3 350 547.7 375 553.7C400 559.7 425 567.3 450 567.5C475 567.7 500 560.3 525 559.2C550 558 575 563 600 561C625 559 650 550 675 543.7C700 537.3 725 533.7 750 537.8C775 542 800 554 825 558.5C850 563 875 560 887.5 558.5L900 557L900 601L887.5 601C875 601 850 601 825 601C800 601 775 601 750 601C725 601 700 601 675 601C650 601 625 601 600 601C575 601 550 601 525 601C500 601 475 601 450 601C425 601 400 601 375 601C350 601 325 601 300 601C275 601 250 601 225 601C200 601 175 601 150 601C125 601 100 601 75 601C50 601 25 601 12.5 601L0 601Z" fill="#2b296e"></path></svg>