<svg id="visual" viewBox="0 0 960 100" width="960" height="100" xmlns="http://www.w3.org/2000/svg" xmlns:xlink="http://www.w3.org/1999/xlink" version="1.1"><rect x="0" y="0" width="960" height="100" fill="#202731"></rect><path d="M0 38L8.5 36C17 34 34 30 50.8 30.5C67.7 31 84.3 36 101.2 36.5C118 37 135 33 151.8 30.5C168.7 28 185.3 27 202.2 29C219 31 236 36 252.8 37C269.7 38 286.3 35 303.2 32.8C320 30.7 337 29.3 353.8 30.2C370.7 31 387.3 34 404.2 34.7C421 35.3 438 33.7 454.8 31.7C471.7 29.7 488.3 27.3 505.2 29.3C522 31.3 539 37.7 555.8 40C572.7 42.3 589.3 40.7 606.2 37.5C623 34.3 640 29.7 656.8 30.2C673.7 30.7 690.3 36.3 707.2 37.2C724 38 741 34 757.8 31.8C774.7 29.7 791.3 29.3 808.2 31.7C825 34 842 39 858.8 39.7C875.7 40.3 892.3 36.7 909.2 34.7C926 32.7 943 32.3 951.5 32.2L960 32L960 101L951.5 101C943 101 926 101 909.2 101C892.3 101 875.7 101 858.8 101C842 101 825 101 808.2 101C791.3 101 774.7 101 757.8 101C741 101 724 101 707.2 101C690.3 101 673.7 101 656.8 101C640 101 623 101 606.2 101C589.3 101 572.7 101 555.8 101C539 101 522 101 505.2 101C488.3 101 471.7 101 454.8 101C438 101 421 101 404.2 101C387.3 101 370.7 101 353.8 101C337 101 320 101 303.2 101C286.3 101 269.7 101 252.8 101C236 101 219 101 202.2 101C185.3 101 168.7 101 151.8 101C135 101 118 101 101.2 101C84.3 101 67.7 101 50.8 101C34 101 17 101 8.5 101L0 101Z" fill="#fa7268"></path><path d="M0 47L8.5 46.5C17 46 34 45 50.8 46.7C67.7 48.3 84.3 52.7 101.2 54.7C118 56.7 135 56.3 151.8 54.8C168.7 53.3 185.3 50.7 202.2 49.5C219 48.3 236 48.7 252.8 49.8C269.7 51 286.3 53 303.2 54.3C320 55.7 337 56.3 353.8 56.7C370.7 57 387.3 57 404.2 55.5C421 54 438 51 454.8 48.5C471.7 46 488.3 44 505.2 43.7C522 43.3 539 44.7 555.8 45.2C572.7 45.7 589.3 45.3 606.2 44.5C623 43.7 640 42.3 656.8 42.8C673.7 43.3 690.3 45.7 707.2 46.7C724 47.7 741 47.3 757.8 47.2C774.7 47 791.3 47 808.2 46C825 45 842 43 858.8 43.7C875.7 44.3 892.3 47.7 909.2 50.3C926 53 943 55 951.5 56L960 57L960 101L951.5 101C943 101 926 101 909.2 101C892.3 101 875.7 101 858.8 101C842 101 825 101 808.2 101C791.3 101 774.7 101 757.8 101C741 101 724 101 707.2 101C690.3 101 673.7 101 656.8 101C640 101 623 101 606.2 101C589.3 101 572.7 101 555.8 101C539 101 522 101 505.2 101C488.3 101 471.7 101 454.8 101C438 101 421 101 404.2 101C387.3 101 370.7 101 353.8 101C337 101 320 101 303.2 101C286.3 101 269.7 101 252.8 101C236 101 219 101 202.2 101C185.3 101 168.7 101 151.8 101C135 101 118 101 101.2 101C84.3 101 67.7 101 50.8 101C34 101 17 101 8.5 101L0 101Z" fill="#eb5967"></path><path d="M0 70L8.5 68.5C17 67 34 64 50.8 63.3C67.7 62.7 84.3 64.3 101.2 65.2C118 66 135 66 151.8 65.7C168.7 65.3 185.3 64.7 202.2 64C219 63.3 236 62.7 252.8 61.5C269.7 60.3 286.3 58.7 303.2 60C320 61.3 337 65.7 353.8 66.3C370.7 67 387.3 64 404.2 63.3C421 62.7 438 64.3 454.8 65.2C471.7 66 488.3 66 505.2 64.8C522 63.7 539 61.3 555.8 60.2C572.7 59 589.3 59 606.2 59.3C623 59.7 640 60.3 656.8 61.8C673.7 63.3 690.3 65.7 707.2 66C724 66.3 741 64.7 757.8 63C774.7 61.3 791.3 59.7 808.2 60.5C825 61.3 842 64.7 858.8 65.2C875.7 65.7 892.3 63.3 909.2 62.8C926 62.3 943 63.7 951.5 64.3L960 65L960 101L951.5 101C943 101 926 101 909.2 101C892.3 101 875.7 101 858.8 101C842 101 825 101 808.2 101C791.3 101 774.7 101 757.8 101C741 101 724 101 707.2 101C690.3 101 673.7 101 656.8 101C640 101 623 101 606.2 101C589.3 101 572.7 101 555.8 101C539 101 522 101 505.2 101C488.3 101 471.7 101 454.8 101C438 101 421 101 404.2 101C387.3 101 370.7 101 353.8 101C337 101 320 101 303.2 101C286.3 101 269.7 101 252.8 101C236 101 219 101 202.2 101C185.3 101 168.7 101 151.8 101C135 101 118 101 101.2 101C84.3 101 67.7 101 50.8 101C34 101 17 101 8.5 101L0 101Z" fill="#da3f67"></path><path d="M0 85L8.5 84C17 83 34 81 50.8 79.7C67.7 78.3 84.3 77.7 101.2 78.7C118 79.7 135 82.3 151.8 82.5C168.7 82.7 185.3 80.3 202.2 79.7C219 79 236 80 252.8 81C269.7 82 286.3 83 303.2 82C320 81 337 78 353.8 77C370.7 76 387.3 77 404.2 78.5C421 80 438 82 454.8 82.8C471.7 83.7 488.3 83.3 505.2 81.7C522 80 539 77 555.8 76.5C572.7 76 589.3 78 606.2 78.7C623 79.3 640 78.7 656.8 78.3C673.7 78 690.3 78 707.2 78.8C724 79.7 741 81.3 757.8 80.8C774.7 80.3 791.3 77.7 808.2 76.2C825 74.7 842 74.3 858.8 74.8C875.7 75.3 892.3 76.7 909.2 78.5C926 80.3 943 82.7 951.5 83.8L960 85L960 101L951.5 101C943 101 926 101 909.2 101C892.3 101 875.7 101 858.8 101C842 101 825 101 808.2 101C791.3 101 774.7 101 757.8 101C741 101 724 101 707.2 101C690.3 101 673.7 101 656.8 101C640 101 623 101 606.2 101C589.3 101 572.7 101 555.8 101C539 101 522 101 505.2 101C488.3 101 471.7 101 454.8 101C438 101 421 101 404.2 101C387.3 101 370.7 101 353.8 101C337 101 320 101 303.2 101C286.3 101 269.7 101 252.8 101C236 101 219 101 202.2 101C185.3 101 168.7 101 151.8 101C135 101 118 101 101.2 101C84.3 101 67.7 101 50.8 101C34 101 17 101 8.5 101L0 101Z" fill="#c62368"></path></svg>