<svg id="visual" viewBox="0 0 960 200" width="960" height="200" xmlns="http://www.w3.org/2000/svg" xmlns:xlink="http://www.w3.org/1999/xlink" version="1.1"><rect x="0" y="0" width="960" height="200" fill="#202731"></rect><path d="M0 66L8.5 63.2C17 60.3 34 54.7 50.8 57C67.7 59.3 84.3 69.7 101.2 76.3C118 83 135 86 151.8 86.8C168.7 87.7 185.3 86.3 202.2 82C219 77.7 236 70.3 252.8 70.8C269.7 71.3 286.3 79.7 303.2 84C320 88.3 337 88.7 353.8 86.7C370.7 84.7 387.3 80.3 404.2 80C421 79.7 438 83.3 454.8 80.3C471.7 77.3 488.3 67.7 505.2 65.8C522 64 539 70 555.8 74.7C572.7 79.3 589.3 82.7 606.2 83.3C623 84 640 82 656.8 82.2C673.7 82.3 690.3 84.7 707.2 81.5C724 78.3 741 69.7 757.8 63.5C774.7 57.3 791.3 53.7 808.2 56.7C825 59.7 842 69.3 858.8 75.8C875.7 82.3 892.3 85.7 909.2 85.7C926 85.7 943 82.3 951.5 80.7L960 79L960 201L951.5 201C943 201 926 201 909.2 201C892.3 201 875.7 201 858.8 201C842 201 825 201 808.2 201C791.3 201 774.7 201 757.8 201C741 201 724 201 707.2 201C690.3 201 673.7 201 656.8 201C640 201 623 201 606.2 201C589.3 201 572.7 201 555.8 201C539 201 522 201 505.2 201C488.3 201 471.7 201 454.8 201C438 201 421 201 404.2 201C387.3 201 370.7 201 353.8 201C337 201 320 201 303.2 201C286.3 201 269.7 201 252.8 201C236 201 219 201 202.2 201C185.3 201 168.7 201 151.8 201C135 201 118 201 101.2 201C84.3 201 67.7 201 50.8 201C34 201 17 201 8.5 201L0 201Z" fill="#dd57c0"></path><path d="M0 94L8.5 97.3C17 100.7 34 107.3 50.8 110.8C67.7 114.3 84.3 114.7 101.2 110.3C118 106 135 97 151.8 95.2C168.7 93.3 185.3 98.7 202.2 98C219 97.3 236 90.7 252.8 92.3C269.7 94 286.3 104 303.2 109.2C320 114.3 337 114.7 353.8 110.3C370.7 106 387.3 97 404.2 92.3C421 87.7 438 87.3 454.8 91.2C471.7 95 488.3 103 505.2 107C522 111 539 111 555.8 106.8C572.7 102.7 589.3 94.3 606.2 93.8C623 93.3 640 100.7 656.8 104.3C673.7 108 690.3 108 707.2 108.2C724 108.3 741 108.7 757.8 105.5C774.7 102.3 791.3 95.7 808.2 96.3C825 97 842 105 858.8 106C875.7 107 892.3 101 909.2 96.3C926 91.7 943 88.3 951.5 86.7L960 85L960 201L951.5 201C943 201 926 201 909.2 201C892.3 201 875.7 201 858.8 201C842 201 825 201 808.2 201C791.3 201 774.7 201 757.8 201C741 201 724 201 707.2 201C690.3 201 673.7 201 656.8 201C640 201 623 201 606.2 201C589.3 201 572.7 201 555.8 201C539 201 522 201 505.2 201C488.3 201 471.7 201 454.8 201C438 201 421 201 404.2 201C387.3 201 370.7 201 353.8 201C337 201 320 201 303.2 201C286.3 201 269.7 201 252.8 201C236 201 219 201 202.2 201C185.3 201 168.7 201 151.8 201C135 201 118 201 101.2 201C84.3 201 67.7 201 50.8 201C34 201 17 201 8.5 201L0 201Z" fill="#af3fa7"></path><path d="M0 123L8.5 123.2C17 123.3 34 123.7 50.8 122.2C67.7 120.7 84.3 117.3 101.2 116.2C118 115 135 116 151.8 119.3C168.7 122.7 185.3 128.3 202.2 128.7C219 129 236 124 252.8 123.3C269.7 122.7 286.3 126.3 303.2 126.8C320 127.3 337 124.7 353.8 124.2C370.7 123.7 387.3 125.3 404.2 127.8C421 130.3 438 133.7 454.8 135.5C471.7 137.3 488.3 137.7 505.2 138.2C522 138.7 539 139.3 555.8 136.7C572.7 134 589.3 128 606.2 124.8C623 121.7 640 121.3 656.8 123.5C673.7 125.7 690.3 130.3 707.2 129.7C724 129 741 123 757.8 121.8C774.7 120.7 791.3 124.3 808.2 128.3C825 132.3 842 136.7 858.8 138.8C875.7 141 892.3 141 909.2 137.7C926 134.3 943 127.7 951.5 124.3L960 121L960 201L951.5 201C943 201 926 201 909.2 201C892.3 201 875.7 201 858.8 201C842 201 825 201 808.2 201C791.3 201 774.7 201 757.8 201C741 201 724 201 707.2 201C690.3 201 673.7 201 656.8 201C640 201 623 201 606.2 201C589.3 201 572.7 201 555.8 201C539 201 522 201 505.2 201C488.3 201 471.7 201 454.8 201C438 201 421 201 404.2 201C387.3 201 370.7 201 353.8 201C337 201 320 201 303.2 201C286.3 201 269.7 201 252.8 201C236 201 219 201 202.2 201C185.3 201 168.7 201 151.8 201C135 201 118 201 101.2 201C84.3 201 67.7 201 50.8 201C34 201 17 201 8.5 201L0 201Z" fill="#82288d"></path><path d="M0 155L8.5 154.3C17 153.7 34 152.3 50.8 153.7C67.7 155 84.3 159 101.2 159.3C118 159.7 135 156.3 151.8 155.8C168.7 155.3 185.3 157.7 202.2 158.5C219 159.3 236 158.7 252.8 156.5C269.7 154.3 286.3 150.7 303.2 151.3C320 152 337 157 353.8 161C370.7 165 387.3 168 404.2 168.7C421 169.3 438 167.7 454.8 165.8C471.7 164 488.3 162 505.2 161.8C522 161.7 539 163.3 555.8 161.3C572.7 159.3 589.3 153.7 606.2 153.2C623 152.7 640 157.3 656.8 159C673.7 160.7 690.3 159.3 707.2 158.7C724 158 741 158 757.8 156.5C774.7 155 791.3 152 808.2 151.5C825 151 842 153 858.8 155.5C875.7 158 892.3 161 909.2 160.5C926 160 943 156 951.5 154L960 152L960 201L951.5 201C943 201 926 201 909.2 201C892.3 201 875.7 201 858.8 201C842 201 825 201 808.2 201C791.3 201 774.7 201 757.8 201C741 201 724 201 707.2 201C690.3 201 673.7 201 656.8 201C640 201 623 201 606.2 201C589.3 201 572.7 201 555.8 201C539 201 522 201 505.2 201C488.3 201 471.7 201 454.8 201C438 201 421 201 404.2 201C387.3 201 370.7 201 353.8 201C337 201 320 201 303.2 201C286.3 201 269.7 201 252.8 201C236 201 219 201 202.2 201C185.3 201 168.7 201 151.8 201C135 201 118 201 101.2 201C84.3 201 67.7 201 50.8 201C34 201 17 201 8.5 201L0 201Z" fill="#561273"></path></svg>