<svg id="visual" viewBox="0 0 900 200" width="900" height="200" xmlns="http://www.w3.org/2000/svg" xmlns:xlink="http://www.w3.org/1999/xlink" version="1.1"><rect x="0" y="0" width="900" height="200" fill="#202731"></rect><path d="M0 22L13.7 32.5C27.3 43 54.7 64 82 71.5C109.3 79 136.7 73 163.8 69.8C191 66.7 218 66.3 245.2 65C272.3 63.7 299.7 61.3 327 54.7C354.3 48 381.7 37 409 31.5C436.3 26 463.7 26 491 33.3C518.3 40.7 545.7 55.3 573 56C600.3 56.7 627.7 43.3 654.8 40.5C682 37.7 709 45.3 736.2 53C763.3 60.7 790.7 68.3 818 65.2C845.3 62 872.7 48 886.3 41L900 34L900 201L886.3 201C872.7 201 845.3 201 818 201C790.7 201 763.3 201 736.2 201C709 201 682 201 654.8 201C627.7 201 600.3 201 573 201C545.7 201 518.3 201 491 201C463.7 201 436.3 201 409 201C381.7 201 354.3 201 327 201C299.7 201 272.3 201 245.2 201C218 201 191 201 163.8 201C136.7 201 109.3 201 82 201C54.7 201 27.3 201 13.7 201L0 201Z" fill="#3300a9"></path><path d="M0 49L13.7 52.2C27.3 55.3 54.7 61.7 82 69C109.3 76.3 136.7 84.7 163.8 84C191 83.3 218 73.7 245.2 67.8C272.3 62 299.7 60 327 59.2C354.3 58.3 381.7 58.7 409 58.2C436.3 57.7 463.7 56.3 491 56C518.3 55.7 545.7 56.3 573 62.7C600.3 69 627.7 81 654.8 86C682 91 709 89 736.2 81.2C763.3 73.3 790.7 59.7 818 61.5C845.3 63.3 872.7 80.7 886.3 89.3L900 98L900 201L886.3 201C872.7 201 845.3 201 818 201C790.7 201 763.3 201 736.2 201C709 201 682 201 654.8 201C627.7 201 600.3 201 573 201C545.7 201 518.3 201 491 201C463.7 201 436.3 201 409 201C381.7 201 354.3 201 327 201C299.7 201 272.3 201 245.2 201C218 201 191 201 163.8 201C136.7 201 109.3 201 82 201C54.7 201 27.3 201 13.7 201L0 201Z" fill="#4403b0"></path><path d="M0 87L13.7 86C27.3 85 54.7 83 82 86.2C109.3 89.3 136.7 97.7 163.8 96.8C191 96 218 86 245.2 82.3C272.3 78.7 299.7 81.3 327 83.7C354.3 86 381.7 88 409 90.2C436.3 92.3 463.7 94.7 491 98.7C518.3 102.7 545.7 108.3 573 106.3C600.3 104.3 627.7 94.7 654.8 87.2C682 79.7 709 74.3 736.2 76.3C763.3 78.3 790.7 87.7 818 90.8C845.3 94 872.7 91 886.3 89.5L900 88L900 201L886.3 201C872.7 201 845.3 201 818 201C790.7 201 763.3 201 736.2 201C709 201 682 201 654.8 201C627.7 201 600.3 201 573 201C545.7 201 518.3 201 491 201C463.7 201 436.3 201 409 201C381.7 201 354.3 201 327 201C299.7 201 272.3 201 245.2 201C218 201 191 201 163.8 201C136.7 201 109.3 201 82 201C54.7 201 27.3 201 13.7 201L0 201Z" fill="#5407b7"></path><path d="M0 118L13.7 120.2C27.3 122.3 54.7 126.7 82 127.3C109.3 128 136.7 125 163.8 122.3C191 119.7 218 117.3 245.2 113.2C272.3 109 299.7 103 327 103C354.3 103 381.7 109 409 114.7C436.3 120.3 463.7 125.7 491 128.2C518.3 130.7 545.7 130.3 573 127.3C600.3 124.3 627.7 118.7 654.8 112.5C682 106.3 709 99.7 736.2 102.5C763.3 105.3 790.7 117.7 818 118.7C845.3 119.7 872.7 109.3 886.3 104.2L900 99L900 201L886.3 201C872.7 201 845.3 201 818 201C790.7 201 763.3 201 736.2 201C709 201 682 201 654.8 201C627.7 201 600.3 201 573 201C545.7 201 518.3 201 491 201C463.7 201 436.3 201 409 201C381.7 201 354.3 201 327 201C299.7 201 272.3 201 245.2 201C218 201 191 201 163.8 201C136.7 201 109.3 201 82 201C54.7 201 27.3 201 13.7 201L0 201Z" fill="#620cbe"></path><path d="M0 120L13.7 120.8C27.3 121.7 54.7 123.3 82 123.7C109.3 124 136.7 123 163.8 123.2C191 123.3 218 124.7 245.2 128.2C272.3 131.7 299.7 137.3 327 141C354.3 144.7 381.7 146.3 409 147C436.3 147.7 463.7 147.3 491 142.8C518.3 138.3 545.7 129.7 573 130.3C600.3 131 627.7 141 654.8 140.5C682 140 709 129 736.2 123.5C763.3 118 790.7 118 818 122C845.3 126 872.7 134 886.3 138L900 142L900 201L886.3 201C872.7 201 845.3 201 818 201C790.7 201 763.3 201 736.2 201C709 201 682 201 654.8 201C627.7 201 600.3 201 573 201C545.7 201 518.3 201 491 201C463.7 201 436.3 201 409 201C381.7 201 354.3 201 327 201C299.7 201 272.3 201 245.2 201C218 201 191 201 163.8 201C136.7 201 109.3 201 82 201C54.7 201 27.3 201 13.7 201L0 201Z" fill="#7011c5"></path><path d="M0 167L13.7 164.2C27.3 161.3 54.7 155.7 82 153.5C109.3 151.3 136.7 152.7 163.8 152.8C191 153 218 152 245.2 154.7C272.3 157.3 299.7 163.7 327 165C354.3 166.3 381.7 162.7 409 162.5C436.3 162.3 463.7 165.7 491 165.5C518.3 165.3 545.7 161.7 573 161C600.3 160.3 627.7 162.7 654.8 162.3C682 162 709 159 736.2 156.3C763.3 153.7 790.7 151.3 818 154C845.3 156.7 872.7 164.3 886.3 168.2L900 172L900 201L886.3 201C872.7 201 845.3 201 818 201C790.7 201 763.3 201 736.2 201C709 201 682 201 654.8 201C627.7 201 600.3 201 573 201C545.7 201 518.3 201 491 201C463.7 201 436.3 201 409 201C381.7 201 354.3 201 327 201C299.7 201 272.3 201 245.2 201C218 201 191 201 163.8 201C136.7 201 109.3 201 82 201C54.7 201 27.3 201 13.7 201L0 201Z" fill="#7d16cb"></path><path d="M0 187L13.7 185.2C27.3 183.3 54.7 179.7 82 179.7C109.3 179.7 136.7 183.3 163.8 182.3C191 181.3 218 175.7 245.2 172.3C272.3 169 299.7 168 327 166.8C354.3 165.7 381.7 164.3 409 166.8C436.3 169.3 463.7 175.7 491 176.7C518.3 177.7 545.7 173.3 573 170.8C600.3 168.3 627.7 167.7 654.8 169.5C682 171.3 709 175.7 736.2 174.8C763.3 174 790.7 168 818 168.3C845.3 168.7 872.7 175.3 886.3 178.7L900 182L900 201L886.3 201C872.7 201 845.3 201 818 201C790.7 201 763.3 201 736.2 201C709 201 682 201 654.8 201C627.7 201 600.3 201 573 201C545.7 201 518.3 201 491 201C463.7 201 436.3 201 409 201C381.7 201 354.3 201 327 201C299.7 201 272.3 201 245.2 201C218 201 191 201 163.8 201C136.7 201 109.3 201 82 201C54.7 201 27.3 201 13.7 201L0 201Z" fill="#8a1bd2"></path></svg>