<svg id="visual" viewBox="0 0 960 200" width="960" height="200" xmlns="http://www.w3.org/2000/svg" xmlns:xlink="http://www.w3.org/1999/xlink" version="1.1"><rect x="0" y="0" width="960" height="200" fill="#202731"></rect><path d="M0 136L8.5 133.3C17 130.7 34 125.3 50.8 124C67.7 122.7 84.3 125.3 101.2 128.3C118 131.3 135 134.7 151.8 132.5C168.7 130.3 185.3 122.7 202.2 117.8C219 113 236 111 252.8 110.5C269.7 110 286.3 111 303.2 114.2C320 117.3 337 122.7 353.8 122.3C370.7 122 387.3 116 404.2 117.8C421 119.7 438 129.3 454.8 129.5C471.7 129.7 488.3 120.3 505.2 120.5C522 120.7 539 130.3 555.8 132.2C572.7 134 589.3 128 606.2 123.7C623 119.3 640 116.7 656.8 114.3C673.7 112 690.3 110 707.2 113.2C724 116.3 741 124.7 757.8 125.5C774.7 126.3 791.3 119.7 808.2 121.3C825 123 842 133 858.8 133.8C875.7 134.7 892.3 126.3 909.2 121.7C926 117 943 116 951.5 115.5L960 115L960 0L951.5 0C943 0 926 0 909.2 0C892.3 0 875.7 0 858.8 0C842 0 825 0 808.2 0C791.3 0 774.7 0 757.8 0C741 0 724 0 707.2 0C690.3 0 673.7 0 656.8 0C640 0 623 0 606.2 0C589.3 0 572.7 0 555.8 0C539 0 522 0 505.2 0C488.3 0 471.7 0 454.8 0C438 0 421 0 404.2 0C387.3 0 370.7 0 353.8 0C337 0 320 0 303.2 0C286.3 0 269.7 0 252.8 0C236 0 219 0 202.2 0C185.3 0 168.7 0 151.8 0C135 0 118 0 101.2 0C84.3 0 67.7 0 50.8 0C34 0 17 0 8.5 0L0 0Z" fill="#29c9ba"></path><path d="M0 105L8.5 104.2C17 103.3 34 101.7 50.8 100.2C67.7 98.7 84.3 97.3 101.2 98.3C118 99.3 135 102.7 151.8 103.5C168.7 104.3 185.3 102.7 202.2 103.2C219 103.7 236 106.3 252.8 106.8C269.7 107.3 286.3 105.7 303.2 106.8C320 108 337 112 353.8 113.3C370.7 114.7 387.3 113.3 404.2 111.2C421 109 438 106 454.8 106C471.7 106 488.3 109 505.2 110.2C522 111.3 539 110.7 555.8 109.8C572.7 109 589.3 108 606.2 103.5C623 99 640 91 656.8 90.8C673.7 90.7 690.3 98.3 707.2 101.7C724 105 741 104 757.8 101.7C774.7 99.3 791.3 95.7 808.2 94.2C825 92.7 842 93.3 858.8 96.2C875.7 99 892.3 104 909.2 105.8C926 107.7 943 106.3 951.5 105.7L960 105L960 0L951.5 0C943 0 926 0 909.2 0C892.3 0 875.7 0 858.8 0C842 0 825 0 808.2 0C791.3 0 774.7 0 757.8 0C741 0 724 0 707.2 0C690.3 0 673.7 0 656.8 0C640 0 623 0 606.2 0C589.3 0 572.7 0 555.8 0C539 0 522 0 505.2 0C488.3 0 471.7 0 454.8 0C438 0 421 0 404.2 0C387.3 0 370.7 0 353.8 0C337 0 320 0 303.2 0C286.3 0 269.7 0 252.8 0C236 0 219 0 202.2 0C185.3 0 168.7 0 151.8 0C135 0 118 0 101.2 0C84.3 0 67.7 0 50.8 0C34 0 17 0 8.5 0L0 0Z" fill="#0097be"></path><path d="M0 83L8.5 82.3C17 81.7 34 80.3 50.8 75.5C67.7 70.7 84.3 62.3 101.2 58.7C118 55 135 56 151.8 58.2C168.7 60.3 185.3 63.7 202.2 64.8C219 66 236 65 252.8 64.7C269.7 64.3 286.3 64.7 303.2 67C320 69.3 337 73.7 353.8 74.2C370.7 74.7 387.3 71.3 404.2 67.8C421 64.3 438 60.7 454.8 60.8C471.7 61 488.3 65 505.2 67.7C522 70.3 539 71.7 555.8 71.7C572.7 71.7 589.3 70.3 606.2 69.8C623 69.3 640 69.7 656.8 70.7C673.7 71.7 690.3 73.3 707.2 74C724 74.7 741 74.3 757.8 72C774.7 69.7 791.3 65.3 808.2 66.5C825 67.7 842 74.3 858.8 74.7C875.7 75 892.3 69 909.2 67.3C926 65.7 943 68.3 951.5 69.7L960 71L960 0L951.5 0C943 0 926 0 909.2 0C892.3 0 875.7 0 858.8 0C842 0 825 0 808.2 0C791.3 0 774.7 0 757.8 0C741 0 724 0 707.2 0C690.3 0 673.7 0 656.8 0C640 0 623 0 606.2 0C589.3 0 572.7 0 555.8 0C539 0 522 0 505.2 0C488.3 0 471.7 0 454.8 0C438 0 421 0 404.2 0C387.3 0 370.7 0 353.8 0C337 0 320 0 303.2 0C286.3 0 269.7 0 252.8 0C236 0 219 0 202.2 0C185.3 0 168.7 0 151.8 0C135 0 118 0 101.2 0C84.3 0 67.7 0 50.8 0C34 0 17 0 8.5 0L0 0Z" fill="#00619f"></path><path d="M0 45L8.5 43.5C17 42 34 39 50.8 37.7C67.7 36.3 84.3 36.7 101.2 38C118 39.3 135 41.7 151.8 41.7C168.7 41.7 185.3 39.3 202.2 39.2C219 39 236 41 252.8 43C269.7 45 286.3 47 303.2 47C320 47 337 45 353.8 42.8C370.7 40.7 387.3 38.3 404.2 38.8C421 39.3 438 42.7 454.8 45C471.7 47.3 488.3 48.7 505.2 47.2C522 45.7 539 41.3 555.8 38C572.7 34.7 589.3 32.3 606.2 32C623 31.7 640 33.3 656.8 35.5C673.7 37.7 690.3 40.3 707.2 41.2C724 42 741 41 757.8 41C774.7 41 791.3 42 808.2 43C825 44 842 45 858.8 43.5C875.7 42 892.3 38 909.2 38.2C926 38.3 943 42.7 951.5 44.8L960 47L960 0L951.5 0C943 0 926 0 909.2 0C892.3 0 875.7 0 858.8 0C842 0 825 0 808.2 0C791.3 0 774.7 0 757.8 0C741 0 724 0 707.2 0C690.3 0 673.7 0 656.8 0C640 0 623 0 606.2 0C589.3 0 572.7 0 555.8 0C539 0 522 0 505.2 0C488.3 0 471.7 0 454.8 0C438 0 421 0 404.2 0C387.3 0 370.7 0 353.8 0C337 0 320 0 303.2 0C286.3 0 269.7 0 252.8 0C236 0 219 0 202.2 0C185.3 0 168.7 0 151.8 0C135 0 118 0 101.2 0C84.3 0 67.7 0 50.8 0C34 0 17 0 8.5 0L0 0Z" fill="#122972"></path></svg>