<svg id="visual" viewBox="0 0 960 200" width="960" height="200" xmlns="http://www.w3.org/2000/svg" xmlns:xlink="http://www.w3.org/1999/xlink" version="1.1"><rect x="0" y="0" width="960" height="200" fill="#202731"></rect><path d="M0 77L8.5 73.2C17 69.3 34 61.7 50.8 62.8C67.7 64 84.3 74 101.2 74.8C118 75.7 135 67.3 151.8 62.2C168.7 57 185.3 55 202.2 58.8C219 62.7 236 72.3 252.8 74.2C269.7 76 286.3 70 303.2 65.8C320 61.7 337 59.3 353.8 61.2C370.7 63 387.3 69 404.2 70.5C421 72 438 69 454.8 65.2C471.7 61.3 488.3 56.7 505.2 60.3C522 64 539 76 555.8 80.3C572.7 84.7 589.3 81.3 606.2 75.2C623 69 640 60 656.8 61.2C673.7 62.3 690.3 73.7 707.2 75.3C724 77 741 69 757.8 64.5C774.7 60 791.3 59 808.2 63.5C825 68 842 78 858.8 79.5C875.7 81 892.3 74 909.2 70.2C926 66.3 943 65.7 951.5 65.3L960 65L960 201L951.5 201C943 201 926 201 909.2 201C892.3 201 875.7 201 858.8 201C842 201 825 201 808.2 201C791.3 201 774.7 201 757.8 201C741 201 724 201 707.2 201C690.3 201 673.7 201 656.8 201C640 201 623 201 606.2 201C589.3 201 572.7 201 555.8 201C539 201 522 201 505.2 201C488.3 201 471.7 201 454.8 201C438 201 421 201 404.2 201C387.3 201 370.7 201 353.8 201C337 201 320 201 303.2 201C286.3 201 269.7 201 252.8 201C236 201 219 201 202.2 201C185.3 201 168.7 201 151.8 201C135 201 118 201 101.2 201C84.3 201 67.7 201 50.8 201C34 201 17 201 8.5 201L0 201Z" fill="#1f467b"></path><path d="M0 95L8.5 94C17 93 34 91 50.8 94.3C67.7 97.7 84.3 106.3 101.2 110.5C118 114.7 135 114.3 151.8 111.5C168.7 108.7 185.3 103.3 202.2 100.7C219 98 236 98 252.8 100C269.7 102 286.3 106 303.2 108.8C320 111.7 337 113.3 353.8 114.2C370.7 115 387.3 115 404.2 112C421 109 438 103 454.8 98C471.7 93 488.3 89 505.2 88.2C522 87.3 539 89.7 555.8 90.7C572.7 91.7 589.3 91.3 606.2 90C623 88.7 640 86.3 656.8 87.5C673.7 88.7 690.3 93.3 707.2 95.2C724 97 741 96 757.8 95.7C774.7 95.3 791.3 95.7 808.2 93.8C825 92 842 88 858.8 89C875.7 90 892.3 96 909.2 101.2C926 106.3 943 110.7 951.5 112.8L960 115L960 201L951.5 201C943 201 926 201 909.2 201C892.3 201 875.7 201 858.8 201C842 201 825 201 808.2 201C791.3 201 774.7 201 757.8 201C741 201 724 201 707.2 201C690.3 201 673.7 201 656.8 201C640 201 623 201 606.2 201C589.3 201 572.7 201 555.8 201C539 201 522 201 505.2 201C488.3 201 471.7 201 454.8 201C438 201 421 201 404.2 201C387.3 201 370.7 201 353.8 201C337 201 320 201 303.2 201C286.3 201 269.7 201 252.8 201C236 201 219 201 202.2 201C185.3 201 168.7 201 151.8 201C135 201 118 201 101.2 201C84.3 201 67.7 201 50.8 201C34 201 17 201 8.5 201L0 201Z" fill="#006f9d"></path><path d="M0 140L8.5 137.3C17 134.7 34 129.3 50.8 128C67.7 126.7 84.3 129.3 101.2 131C118 132.7 135 133.3 151.8 132.7C168.7 132 185.3 130 202.2 128.5C219 127 236 126 252.8 123.8C269.7 121.7 286.3 118.3 303.2 120.8C320 123.3 337 131.7 353.8 133C370.7 134.3 387.3 128.7 404.2 127.5C421 126.3 438 129.7 454.8 131.3C471.7 133 488.3 133 505.2 130.7C522 128.3 539 123.7 555.8 121.3C572.7 119 589.3 119 606.2 119.5C623 120 640 121 656.8 124.2C673.7 127.3 690.3 132.7 707.2 133.3C724 134 741 130 757.8 126.3C774.7 122.7 791.3 119.3 808.2 121C825 122.7 842 129.3 858.8 130.5C875.7 131.7 892.3 127.3 909.2 126.5C926 125.7 943 128.3 951.5 129.7L960 131L960 201L951.5 201C943 201 926 201 909.2 201C892.3 201 875.7 201 858.8 201C842 201 825 201 808.2 201C791.3 201 774.7 201 757.8 201C741 201 724 201 707.2 201C690.3 201 673.7 201 656.8 201C640 201 623 201 606.2 201C589.3 201 572.7 201 555.8 201C539 201 522 201 505.2 201C488.3 201 471.7 201 454.8 201C438 201 421 201 404.2 201C387.3 201 370.7 201 353.8 201C337 201 320 201 303.2 201C286.3 201 269.7 201 252.8 201C236 201 219 201 202.2 201C185.3 201 168.7 201 151.8 201C135 201 118 201 101.2 201C84.3 201 67.7 201 50.8 201C34 201 17 201 8.5 201L0 201Z" fill="#0099b6"></path><path d="M0 170L8.5 168C17 166 34 162 50.8 159.7C67.7 157.3 84.3 156.7 101.2 158.7C118 160.7 135 165.3 151.8 165.5C168.7 165.7 185.3 161.3 202.2 160.2C219 159 236 161 252.8 163.2C269.7 165.3 286.3 167.7 303.2 165.8C320 164 337 158 353.8 155.8C370.7 153.7 387.3 155.3 404.2 158.2C421 161 438 165 454.8 166.5C471.7 168 488.3 167 505.2 163.8C522 160.7 539 155.3 555.8 154.5C572.7 153.7 589.3 157.3 606.2 158.7C623 160 640 159 656.8 158.3C673.7 157.7 690.3 157.3 707.2 158.8C724 160.3 741 163.7 757.8 162.5C774.7 161.3 791.3 155.7 808.2 152.8C825 150 842 150 858.8 151.3C875.7 152.7 892.3 155.3 909.2 158.8C926 162.3 943 166.7 951.5 168.8L960 171L960 201L951.5 201C943 201 926 201 909.2 201C892.3 201 875.7 201 858.8 201C842 201 825 201 808.2 201C791.3 201 774.7 201 757.8 201C741 201 724 201 707.2 201C690.3 201 673.7 201 656.8 201C640 201 623 201 606.2 201C589.3 201 572.7 201 555.8 201C539 201 522 201 505.2 201C488.3 201 471.7 201 454.8 201C438 201 421 201 404.2 201C387.3 201 370.7 201 353.8 201C337 201 320 201 303.2 201C286.3 201 269.7 201 252.8 201C236 201 219 201 202.2 201C185.3 201 168.7 201 151.8 201C135 201 118 201 101.2 201C84.3 201 67.7 201 50.8 201C34 201 17 201 8.5 201L0 201Z" fill="#25c1bc"></path></svg>