<svg id="visual" viewBox="0 0 960 200" width="960" height="200" xmlns="http://www.w3.org/2000/svg" xmlns:xlink="http://www.w3.org/1999/xlink" version="1.1"><rect x="0" y="0" width="960" height="200" fill="#202731"></rect><path d="M0 122L8.5 126.5C17 131 34 140 50.8 141.8C67.7 143.7 84.3 138.3 101.2 133.3C118 128.3 135 123.7 151.8 123.3C168.7 123 185.3 127 202.2 127C219 127 236 123 252.8 124.7C269.7 126.3 286.3 133.7 303.2 134.7C320 135.7 337 130.3 353.8 126.5C370.7 122.7 387.3 120.3 404.2 118.2C421 116 438 114 454.8 115.7C471.7 117.3 488.3 122.7 505.2 124.3C522 126 539 124 555.8 127.2C572.7 130.3 589.3 138.7 606.2 138.5C623 138.3 640 129.7 656.8 127.7C673.7 125.7 690.3 130.3 707.2 129.7C724 129 741 123 757.8 123.3C774.7 123.7 791.3 130.3 808.2 134.5C825 138.7 842 140.3 858.8 136.8C875.7 133.3 892.3 124.7 909.2 123.2C926 121.7 943 127.3 951.5 130.2L960 133L960 0L951.5 0C943 0 926 0 909.2 0C892.3 0 875.7 0 858.8 0C842 0 825 0 808.2 0C791.3 0 774.7 0 757.8 0C741 0 724 0 707.2 0C690.3 0 673.7 0 656.8 0C640 0 623 0 606.2 0C589.3 0 572.7 0 555.8 0C539 0 522 0 505.2 0C488.3 0 471.7 0 454.8 0C438 0 421 0 404.2 0C387.3 0 370.7 0 353.8 0C337 0 320 0 303.2 0C286.3 0 269.7 0 252.8 0C236 0 219 0 202.2 0C185.3 0 168.7 0 151.8 0C135 0 118 0 101.2 0C84.3 0 67.7 0 50.8 0C34 0 17 0 8.5 0L0 0Z" fill="#52142b"></path><path d="M0 109L8.5 107C17 105 34 101 50.8 96.5C67.7 92 84.3 87 101.2 84.5C118 82 135 82 151.8 84.2C168.7 86.3 185.3 90.7 202.2 93.8C219 97 236 99 252.8 101.2C269.7 103.3 286.3 105.7 303.2 105.8C320 106 337 104 353.8 102.5C370.7 101 387.3 100 404.2 100.2C421 100.3 438 101.7 454.8 99.8C471.7 98 488.3 93 505.2 92.8C522 92.7 539 97.3 555.8 96.5C572.7 95.7 589.3 89.3 606.2 87C623 84.7 640 86.3 656.8 91C673.7 95.7 690.3 103.3 707.2 106C724 108.7 741 106.3 757.8 106.8C774.7 107.3 791.3 110.7 808.2 112C825 113.3 842 112.7 858.8 111.2C875.7 109.7 892.3 107.3 909.2 104.2C926 101 943 97 951.5 95L960 93L960 0L951.5 0C943 0 926 0 909.2 0C892.3 0 875.7 0 858.8 0C842 0 825 0 808.2 0C791.3 0 774.7 0 757.8 0C741 0 724 0 707.2 0C690.3 0 673.7 0 656.8 0C640 0 623 0 606.2 0C589.3 0 572.7 0 555.8 0C539 0 522 0 505.2 0C488.3 0 471.7 0 454.8 0C438 0 421 0 404.2 0C387.3 0 370.7 0 353.8 0C337 0 320 0 303.2 0C286.3 0 269.7 0 252.8 0C236 0 219 0 202.2 0C185.3 0 168.7 0 151.8 0C135 0 118 0 101.2 0C84.3 0 67.7 0 50.8 0C34 0 17 0 8.5 0L0 0Z" fill="#5c093d"></path><path d="M0 72L8.5 69.3C17 66.7 34 61.3 50.8 60.2C67.7 59 84.3 62 101.2 64.3C118 66.7 135 68.3 151.8 67.5C168.7 66.7 185.3 63.3 202.2 61.3C219 59.3 236 58.7 252.8 58.3C269.7 58 286.3 58 303.2 59.3C320 60.7 337 63.3 353.8 67.2C370.7 71 387.3 76 404.2 76C421 76 438 71 454.8 67.2C471.7 63.3 488.3 60.7 505.2 59C522 57.3 539 56.7 555.8 59.8C572.7 63 589.3 70 606.2 72C623 74 640 71 656.8 69.5C673.7 68 690.3 68 707.2 67C724 66 741 64 757.8 66C774.7 68 791.3 74 808.2 76C825 78 842 76 858.8 72C875.7 68 892.3 62 909.2 62.5C926 63 943 70 951.5 73.5L960 77L960 0L951.5 0C943 0 926 0 909.2 0C892.3 0 875.7 0 858.8 0C842 0 825 0 808.2 0C791.3 0 774.7 0 757.8 0C741 0 724 0 707.2 0C690.3 0 673.7 0 656.8 0C640 0 623 0 606.2 0C589.3 0 572.7 0 555.8 0C539 0 522 0 505.2 0C488.3 0 471.7 0 454.8 0C438 0 421 0 404.2 0C387.3 0 370.7 0 353.8 0C337 0 320 0 303.2 0C286.3 0 269.7 0 252.8 0C236 0 219 0 202.2 0C185.3 0 168.7 0 151.8 0C135 0 118 0 101.2 0C84.3 0 67.7 0 50.8 0C34 0 17 0 8.5 0L0 0Z" fill="#5f0555"></path><path d="M0 45L8.5 44.8C17 44.7 34 44.3 50.8 45.3C67.7 46.3 84.3 48.7 101.2 46.7C118 44.7 135 38.3 151.8 35.7C168.7 33 185.3 34 202.2 36.3C219 38.7 236 42.3 252.8 44C269.7 45.7 286.3 45.3 303.2 46C320 46.7 337 48.3 353.8 45.3C370.7 42.3 387.3 34.7 404.2 34.5C421 34.3 438 41.7 454.8 44.5C471.7 47.3 488.3 45.7 505.2 44C522 42.3 539 40.7 555.8 39.2C572.7 37.7 589.3 36.3 606.2 37.8C623 39.3 640 43.7 656.8 46C673.7 48.3 690.3 48.7 707.2 45.5C724 42.3 741 35.7 757.8 32.3C774.7 29 791.3 29 808.2 31.2C825 33.3 842 37.7 858.8 41.2C875.7 44.7 892.3 47.3 909.2 47C926 46.7 943 43.3 951.5 41.7L960 40L960 0L951.5 0C943 0 926 0 909.2 0C892.3 0 875.7 0 858.8 0C842 0 825 0 808.2 0C791.3 0 774.7 0 757.8 0C741 0 724 0 707.2 0C690.3 0 673.7 0 656.8 0C640 0 623 0 606.2 0C589.3 0 572.7 0 555.8 0C539 0 522 0 505.2 0C488.3 0 471.7 0 454.8 0C438 0 421 0 404.2 0C387.3 0 370.7 0 353.8 0C337 0 320 0 303.2 0C286.3 0 269.7 0 252.8 0C236 0 219 0 202.2 0C185.3 0 168.7 0 151.8 0C135 0 118 0 101.2 0C84.3 0 67.7 0 50.8 0C34 0 17 0 8.5 0L0 0Z" fill="#561273"></path></svg>