<svg id="visual" viewBox="0 0 900 100" width="900" height="100" xmlns="http://www.w3.org/2000/svg" xmlns:xlink="http://www.w3.org/1999/xlink" version="1.1"><rect x="0" y="0" width="900" height="100" fill="#202731"></rect><path d="M0 56L12.5 58C25 60 50 64 75 63.2C100 62.3 125 56.7 150 57.3C175 58 200 65 225 69.7C250 74.3 275 76.7 300 73.5C325 70.3 350 61.7 375 61.3C400 61 425 69 450 71.7C475 74.3 500 71.7 525 71C550 70.3 575 71.7 600 73.3C625 75 650 77 675 75.5C700 74 725 69 750 65.7C775 62.3 800 60.7 825 59.3C850 58 875 57 887.5 56.5L900 56L900 0L887.5 0C875 0 850 0 825 0C800 0 775 0 750 0C725 0 700 0 675 0C650 0 625 0 600 0C575 0 550 0 525 0C500 0 475 0 450 0C425 0 400 0 375 0C350 0 325 0 300 0C275 0 250 0 225 0C200 0 175 0 150 0C125 0 100 0 75 0C50 0 25 0 12.5 0L0 0Z" fill="#fa7268"></path><path d="M0 58L12.5 56C25 54 50 50 75 51.2C100 52.3 125 58.7 150 59C175 59.3 200 53.7 225 53.2C250 52.7 275 57.3 300 60.8C325 64.3 350 66.7 375 66.2C400 65.7 425 62.3 450 61.3C475 60.3 500 61.7 525 59C550 56.3 575 49.7 600 46.8C625 44 650 45 675 45.8C700 46.7 725 47.3 750 49C775 50.7 800 53.3 825 52.5C850 51.7 875 47.3 887.5 45.2L900 43L900 0L887.5 0C875 0 850 0 825 0C800 0 775 0 750 0C725 0 700 0 675 0C650 0 625 0 600 0C575 0 550 0 525 0C500 0 475 0 450 0C425 0 400 0 375 0C350 0 325 0 300 0C275 0 250 0 225 0C200 0 175 0 150 0C125 0 100 0 75 0C50 0 25 0 12.5 0L0 0Z" fill="#f16367"></path><path d="M0 47L12.5 47.3C25 47.7 50 48.3 75 46.8C100 45.3 125 41.7 150 41.8C175 42 200 46 225 46.2C250 46.3 275 42.7 300 43.7C325 44.7 350 50.3 375 51.5C400 52.7 425 49.3 450 45.7C475 42 500 38 525 36.7C550 35.3 575 36.7 600 39.3C625 42 650 46 675 49C700 52 725 54 750 52.5C775 51 800 46 825 43.7C850 41.3 875 41.7 887.5 41.8L900 42L900 0L887.5 0C875 0 850 0 825 0C800 0 775 0 750 0C725 0 700 0 675 0C650 0 625 0 600 0C575 0 550 0 525 0C500 0 475 0 450 0C425 0 400 0 375 0C350 0 325 0 300 0C275 0 250 0 225 0C200 0 175 0 150 0C125 0 100 0 75 0C50 0 25 0 12.5 0L0 0Z" fill="#e85467"></path><path d="M0 26L12.5 28.7C25 31.3 50 36.7 75 39.7C100 42.7 125 43.3 150 41.3C175 39.3 200 34.7 225 34.5C250 34.3 275 38.7 300 39.8C325 41 350 39 375 38.8C400 38.7 425 40.3 450 41.5C475 42.7 500 43.3 525 42.3C550 41.3 575 38.7 600 38.5C625 38.3 650 40.7 675 40.3C700 40 725 37 750 36.7C775 36.3 800 38.7 825 38.7C850 38.7 875 36.3 887.5 35.2L900 34L900 0L887.5 0C875 0 850 0 825 0C800 0 775 0 750 0C725 0 700 0 675 0C650 0 625 0 600 0C575 0 550 0 525 0C500 0 475 0 450 0C425 0 400 0 375 0C350 0 325 0 300 0C275 0 250 0 225 0C200 0 175 0 150 0C125 0 100 0 75 0C50 0 25 0 12.5 0L0 0Z" fill="#de4467"></path><path d="M0 25L12.5 25.3C25 25.7 50 26.3 75 26.7C100 27 125 27 150 27.3C175 27.7 200 28.3 225 28C250 27.7 275 26.3 300 24.3C325 22.3 350 19.7 375 18.2C400 16.7 425 16.3 450 16.5C475 16.7 500 17.3 525 18.7C550 20 575 22 600 22.3C625 22.7 650 21.3 675 21C700 20.7 725 21.3 750 21.8C775 22.3 800 22.7 825 23.8C850 25 875 27 887.5 28L900 29L900 0L887.5 0C875 0 850 0 825 0C800 0 775 0 750 0C725 0 700 0 675 0C650 0 625 0 600 0C575 0 550 0 525 0C500 0 475 0 450 0C425 0 400 0 375 0C350 0 325 0 300 0C275 0 250 0 225 0C200 0 175 0 150 0C125 0 100 0 75 0C50 0 25 0 12.5 0L0 0Z" fill="#d23467"></path><path d="M0 12L12.5 12.5C25 13 50 14 75 13C100 12 125 9 150 9C175 9 200 12 225 12.2C250 12.3 275 9.7 300 10C325 10.3 350 13.7 375 14.5C400 15.3 425 13.7 450 13.8C475 14 500 16 525 17C550 18 575 18 600 18C625 18 650 18 675 18.2C700 18.3 725 18.7 750 17.2C775 15.7 800 12.3 825 12.3C850 12.3 875 15.7 887.5 17.3L900 19L900 0L887.5 0C875 0 850 0 825 0C800 0 775 0 750 0C725 0 700 0 675 0C650 0 625 0 600 0C575 0 550 0 525 0C500 0 475 0 450 0C425 0 400 0 375 0C350 0 325 0 300 0C275 0 250 0 225 0C200 0 175 0 150 0C125 0 100 0 75 0C50 0 25 0 12.5 0L0 0Z" fill="#c62368"></path></svg>