<svg id="visual" viewBox="0 0 900 200" width="900" height="200" xmlns="http://www.w3.org/2000/svg" xmlns:xlink="http://www.w3.org/1999/xlink" version="1.1"><rect x="0" y="0" width="900" height="200" fill="#202731"></rect><path d="M0 176L13.7 165.5C27.3 155 54.7 134 82 126.5C109.3 119 136.7 125 163.8 128.2C191 131.3 218 131.7 245.2 133C272.3 134.3 299.7 136.7 327 143.3C354.3 150 381.7 161 409 166.5C436.3 172 463.7 172 491 164.7C518.3 157.3 545.7 142.7 573 142C600.3 141.3 627.7 154.7 654.8 157.5C682 160.3 709 152.7 736.2 145C763.3 137.3 790.7 129.7 818 132.8C845.3 136 872.7 150 886.3 157L900 164L900 0L886.3 0C872.7 0 845.3 0 818 0C790.7 0 763.3 0 736.2 0C709 0 682 0 654.8 0C627.7 0 600.3 0 573 0C545.7 0 518.3 0 491 0C463.7 0 436.3 0 409 0C381.7 0 354.3 0 327 0C299.7 0 272.3 0 245.2 0C218 0 191 0 163.8 0C136.7 0 109.3 0 82 0C54.7 0 27.3 0 13.7 0L0 0Z" fill="#510b64"></path><path d="M0 149L13.7 145.8C27.3 142.7 54.7 136.3 82 129C109.3 121.7 136.7 113.3 163.8 114C191 114.7 218 124.3 245.2 130.2C272.3 136 299.7 138 327 138.8C354.3 139.7 381.7 139.3 409 139.8C436.3 140.3 463.7 141.7 491 142C518.3 142.3 545.7 141.7 573 135.3C600.3 129 627.7 117 654.8 112.2C682 107.3 709 109.7 736.2 117.5C763.3 125.3 790.7 138.7 818 136.7C845.3 134.7 872.7 117.3 886.3 108.7L900 100L900 0L886.3 0C872.7 0 845.3 0 818 0C790.7 0 763.3 0 736.2 0C709 0 682 0 654.8 0C627.7 0 600.3 0 573 0C545.7 0 518.3 0 491 0C463.7 0 436.3 0 409 0C381.7 0 354.3 0 327 0C299.7 0 272.3 0 245.2 0C218 0 191 0 163.8 0C136.7 0 109.3 0 82 0C54.7 0 27.3 0 13.7 0L0 0Z" fill="#5b0c75"></path><path d="M0 111L13.7 112C27.3 113 54.7 115 82 111.8C109.3 108.7 136.7 100.3 163.8 101.2C191 102 218 112 245.2 115.7C272.3 119.3 299.7 116.7 327 114.3C354.3 112 381.7 110 409 107.8C436.3 105.7 463.7 103.3 491 99.3C518.3 95.3 545.7 89.7 573 91.7C600.3 93.7 627.7 103.3 654.8 110.8C682 118.3 709 123.7 736.2 121.7C763.3 119.7 790.7 110.3 818 107.2C845.3 104 872.7 107 886.3 108.5L900 110L900 0L886.3 0C872.7 0 845.3 0 818 0C790.7 0 763.3 0 736.2 0C709 0 682 0 654.8 0C627.7 0 600.3 0 573 0C545.7 0 518.3 0 491 0C463.7 0 436.3 0 409 0C381.7 0 354.3 0 327 0C299.7 0 272.3 0 245.2 0C218 0 191 0 163.8 0C136.7 0 109.3 0 82 0C54.7 0 27.3 0 13.7 0L0 0Z" fill="#650e86"></path><path d="M0 80L13.7 77.8C27.3 75.7 54.7 71.3 82 70.7C109.3 70 136.7 73 163.8 75.7C191 78.3 218 80.7 245.2 84.8C272.3 89 299.7 95 327 95C354.3 95 381.7 89 409 83.3C436.3 77.7 463.7 72.3 491 69.8C518.3 67.3 545.7 67.7 573 70.7C600.3 73.7 627.7 79.3 654.8 85.5C682 91.7 709 98.3 736.2 95.5C763.3 92.7 790.7 80.3 818 79.3C845.3 78.3 872.7 88.7 886.3 93.8L900 99L900 0L886.3 0C872.7 0 845.3 0 818 0C790.7 0 763.3 0 736.2 0C709 0 682 0 654.8 0C627.7 0 600.3 0 573 0C545.7 0 518.3 0 491 0C463.7 0 436.3 0 409 0C381.7 0 354.3 0 327 0C299.7 0 272.3 0 245.2 0C218 0 191 0 163.8 0C136.7 0 109.3 0 82 0C54.7 0 27.3 0 13.7 0L0 0Z" fill="#6f1098"></path><path d="M0 78L13.7 77.2C27.3 76.3 54.7 74.7 82 74.3C109.3 74 136.7 75 163.8 74.8C191 74.7 218 73.3 245.2 69.8C272.3 66.3 299.7 60.7 327 57C354.3 53.3 381.7 51.7 409 51C436.3 50.3 463.7 50.7 491 55.2C518.3 59.7 545.7 68.3 573 67.7C600.3 67 627.7 57 654.8 57.5C682 58 709 69 736.2 74.5C763.3 80 790.7 80 818 76C845.3 72 872.7 64 886.3 60L900 56L900 0L886.3 0C872.7 0 845.3 0 818 0C790.7 0 763.3 0 736.2 0C709 0 682 0 654.8 0C627.7 0 600.3 0 573 0C545.7 0 518.3 0 491 0C463.7 0 436.3 0 409 0C381.7 0 354.3 0 327 0C299.7 0 272.3 0 245.2 0C218 0 191 0 163.8 0C136.7 0 109.3 0 82 0C54.7 0 27.3 0 13.7 0L0 0Z" fill="#7813ab"></path><path d="M0 31L13.7 33.8C27.3 36.7 54.7 42.3 82 44.5C109.3 46.7 136.7 45.3 163.8 45.2C191 45 218 46 245.2 43.3C272.3 40.7 299.7 34.3 327 33C354.3 31.7 381.7 35.3 409 35.5C436.3 35.7 463.7 32.3 491 32.5C518.3 32.7 545.7 36.3 573 37C600.3 37.7 627.7 35.3 654.8 35.7C682 36 709 39 736.2 41.7C763.3 44.3 790.7 46.7 818 44C845.3 41.3 872.7 33.7 886.3 29.8L900 26L900 0L886.3 0C872.7 0 845.3 0 818 0C790.7 0 763.3 0 736.2 0C709 0 682 0 654.8 0C627.7 0 600.3 0 573 0C545.7 0 518.3 0 491 0C463.7 0 436.3 0 409 0C381.7 0 354.3 0 327 0C299.7 0 272.3 0 245.2 0C218 0 191 0 163.8 0C136.7 0 109.3 0 82 0C54.7 0 27.3 0 13.7 0L0 0Z" fill="#8217be"></path><path d="M0 11L13.7 12.8C27.3 14.7 54.7 18.3 82 18.3C109.3 18.3 136.7 14.7 163.8 15.7C191 16.7 218 22.3 245.2 25.7C272.3 29 299.7 30 327 31.2C354.3 32.3 381.7 33.7 409 31.2C436.3 28.7 463.7 22.3 491 21.3C518.3 20.3 545.7 24.7 573 27.2C600.3 29.7 627.7 30.3 654.8 28.5C682 26.7 709 22.3 736.2 23.2C763.3 24 790.7 30 818 29.7C845.3 29.3 872.7 22.7 886.3 19.3L900 16L900 0L886.3 0C872.7 0 845.3 0 818 0C790.7 0 763.3 0 736.2 0C709 0 682 0 654.8 0C627.7 0 600.3 0 573 0C545.7 0 518.3 0 491 0C463.7 0 436.3 0 409 0C381.7 0 354.3 0 327 0C299.7 0 272.3 0 245.2 0C218 0 191 0 163.8 0C136.7 0 109.3 0 82 0C54.7 0 27.3 0 13.7 0L0 0Z" fill="#8a1bd2"></path></svg>