<svg id="visual" viewBox="0 0 960 200" width="960" height="200" xmlns="http://www.w3.org/2000/svg" xmlns:xlink="http://www.w3.org/1999/xlink" version="1.1"><rect x="0" y="0" width="960" height="200" fill="#202731"></rect><path d="M0 67L8.5 66.5C17 66 34 65 50.8 66.7C67.7 68.3 84.3 72.7 101.2 70.7C118 68.7 135 60.3 151.8 55.5C168.7 50.7 185.3 49.3 202.2 54C219 58.7 236 69.3 252.8 74.5C269.7 79.7 286.3 79.3 303.2 79.2C320 79 337 79 353.8 76.2C370.7 73.3 387.3 67.7 404.2 67C421 66.3 438 70.7 454.8 73.8C471.7 77 488.3 79 505.2 80.2C522 81.3 539 81.7 555.8 82.3C572.7 83 589.3 84 606.2 84.3C623 84.7 640 84.3 656.8 81.2C673.7 78 690.3 72 707.2 66.8C724 61.7 741 57.3 757.8 55.3C774.7 53.3 791.3 53.7 808.2 56.2C825 58.7 842 63.3 858.8 68.2C875.7 73 892.3 78 909.2 75.5C926 73 943 63 951.5 58L960 53L960 201L951.5 201C943 201 926 201 909.2 201C892.3 201 875.7 201 858.8 201C842 201 825 201 808.2 201C791.3 201 774.7 201 757.8 201C741 201 724 201 707.2 201C690.3 201 673.7 201 656.8 201C640 201 623 201 606.2 201C589.3 201 572.7 201 555.8 201C539 201 522 201 505.2 201C488.3 201 471.7 201 454.8 201C438 201 421 201 404.2 201C387.3 201 370.7 201 353.8 201C337 201 320 201 303.2 201C286.3 201 269.7 201 252.8 201C236 201 219 201 202.2 201C185.3 201 168.7 201 151.8 201C135 201 118 201 101.2 201C84.3 201 67.7 201 50.8 201C34 201 17 201 8.5 201L0 201Z" fill="#1c41ca"></path><path d="M0 101L8.5 100.5C17 100 34 99 50.8 99.5C67.7 100 84.3 102 101.2 100.5C118 99 135 94 151.8 96C168.7 98 185.3 107 202.2 109C219 111 236 106 252.8 100.5C269.7 95 286.3 89 303.2 88C320 87 337 91 353.8 91.3C370.7 91.7 387.3 88.3 404.2 90C421 91.7 438 98.3 454.8 99.7C471.7 101 488.3 97 505.2 93.7C522 90.3 539 87.7 555.8 86C572.7 84.3 589.3 83.7 606.2 87C623 90.3 640 97.7 656.8 100.5C673.7 103.3 690.3 101.7 707.2 103.2C724 104.7 741 109.3 757.8 107.2C774.7 105 791.3 96 808.2 94.3C825 92.7 842 98.3 858.8 98.2C875.7 98 892.3 92 909.2 89.8C926 87.7 943 89.3 951.5 90.2L960 91L960 201L951.5 201C943 201 926 201 909.2 201C892.3 201 875.7 201 858.8 201C842 201 825 201 808.2 201C791.3 201 774.7 201 757.8 201C741 201 724 201 707.2 201C690.3 201 673.7 201 656.8 201C640 201 623 201 606.2 201C589.3 201 572.7 201 555.8 201C539 201 522 201 505.2 201C488.3 201 471.7 201 454.8 201C438 201 421 201 404.2 201C387.3 201 370.7 201 353.8 201C337 201 320 201 303.2 201C286.3 201 269.7 201 252.8 201C236 201 219 201 202.2 201C185.3 201 168.7 201 151.8 201C135 201 118 201 101.2 201C84.3 201 67.7 201 50.8 201C34 201 17 201 8.5 201L0 201Z" fill="#1539ac"></path><path d="M0 140L8.5 136.5C17 133 34 126 50.8 124.2C67.7 122.3 84.3 125.7 101.2 128.3C118 131 135 133 151.8 134.3C168.7 135.7 185.3 136.3 202.2 136.8C219 137.3 236 137.7 252.8 135.7C269.7 133.7 286.3 129.3 303.2 128.8C320 128.3 337 131.7 353.8 130.5C370.7 129.3 387.3 123.7 404.2 121.3C421 119 438 120 454.8 120.2C471.7 120.3 488.3 119.7 505.2 120.2C522 120.7 539 122.3 555.8 121.7C572.7 121 589.3 118 606.2 119.5C623 121 640 127 656.8 130.2C673.7 133.3 690.3 133.7 707.2 135.3C724 137 741 140 757.8 137.2C774.7 134.3 791.3 125.7 808.2 123.8C825 122 842 127 858.8 129.2C875.7 131.3 892.3 130.7 909.2 130.3C926 130 943 130 951.5 130L960 130L960 201L951.5 201C943 201 926 201 909.2 201C892.3 201 875.7 201 858.8 201C842 201 825 201 808.2 201C791.3 201 774.7 201 757.8 201C741 201 724 201 707.2 201C690.3 201 673.7 201 656.8 201C640 201 623 201 606.2 201C589.3 201 572.7 201 555.8 201C539 201 522 201 505.2 201C488.3 201 471.7 201 454.8 201C438 201 421 201 404.2 201C387.3 201 370.7 201 353.8 201C337 201 320 201 303.2 201C286.3 201 269.7 201 252.8 201C236 201 219 201 202.2 201C185.3 201 168.7 201 151.8 201C135 201 118 201 101.2 201C84.3 201 67.7 201 50.8 201C34 201 17 201 8.5 201L0 201Z" fill="#12318e"></path><path d="M0 148L8.5 150.2C17 152.3 34 156.7 50.8 157.2C67.7 157.7 84.3 154.3 101.2 152.7C118 151 135 151 151.8 152.3C168.7 153.7 185.3 156.3 202.2 156.7C219 157 236 155 252.8 154C269.7 153 286.3 153 303.2 152.7C320 152.3 337 151.7 353.8 154C370.7 156.3 387.3 161.7 404.2 162.2C421 162.7 438 158.3 454.8 155.3C471.7 152.3 488.3 150.7 505.2 149.7C522 148.7 539 148.3 555.8 148C572.7 147.7 589.3 147.3 606.2 150.8C623 154.3 640 161.7 656.8 163C673.7 164.3 690.3 159.7 707.2 157.7C724 155.7 741 156.3 757.8 155.8C774.7 155.3 791.3 153.7 808.2 155.3C825 157 842 162 858.8 164.2C875.7 166.3 892.3 165.7 909.2 164.7C926 163.7 943 162.3 951.5 161.7L960 161L960 201L951.5 201C943 201 926 201 909.2 201C892.3 201 875.7 201 858.8 201C842 201 825 201 808.2 201C791.3 201 774.7 201 757.8 201C741 201 724 201 707.2 201C690.3 201 673.7 201 656.8 201C640 201 623 201 606.2 201C589.3 201 572.7 201 555.8 201C539 201 522 201 505.2 201C488.3 201 471.7 201 454.8 201C438 201 421 201 404.2 201C387.3 201 370.7 201 353.8 201C337 201 320 201 303.2 201C286.3 201 269.7 201 252.8 201C236 201 219 201 202.2 201C185.3 201 168.7 201 151.8 201C135 201 118 201 101.2 201C84.3 201 67.7 201 50.8 201C34 201 17 201 8.5 201L0 201Z" fill="#122972"></path></svg>