<svg id="visual" viewBox="0 0 960 200" width="960" height="200" xmlns="http://www.w3.org/2000/svg" xmlns:xlink="http://www.w3.org/1999/xlink" version="1.1"><rect x="0" y="0" width="960" height="200" fill="#202731"></rect><path d="M0 114L8.5 114.3C17 114.7 34 115.3 50.8 114.8C67.7 114.3 84.3 112.7 101.2 111.5C118 110.3 135 109.7 151.8 111.3C168.7 113 185.3 117 202.2 120.5C219 124 236 127 252.8 127.3C269.7 127.7 286.3 125.3 303.2 125.8C320 126.3 337 129.7 353.8 130.2C370.7 130.7 387.3 128.3 404.2 127.2C421 126 438 126 454.8 130C471.7 134 488.3 142 505.2 140.3C522 138.7 539 127.3 555.8 126.3C572.7 125.3 589.3 134.7 606.2 137.3C623 140 640 136 656.8 135.8C673.7 135.7 690.3 139.3 707.2 139.7C724 140 741 137 757.8 135.7C774.7 134.3 791.3 134.7 808.2 135.7C825 136.7 842 138.3 858.8 140C875.7 141.7 892.3 143.3 909.2 142.3C926 141.3 943 137.7 951.5 135.8L960 134L960 0L951.5 0C943 0 926 0 909.2 0C892.3 0 875.7 0 858.8 0C842 0 825 0 808.2 0C791.3 0 774.7 0 757.8 0C741 0 724 0 707.2 0C690.3 0 673.7 0 656.8 0C640 0 623 0 606.2 0C589.3 0 572.7 0 555.8 0C539 0 522 0 505.2 0C488.3 0 471.7 0 454.8 0C438 0 421 0 404.2 0C387.3 0 370.7 0 353.8 0C337 0 320 0 303.2 0C286.3 0 269.7 0 252.8 0C236 0 219 0 202.2 0C185.3 0 168.7 0 151.8 0C135 0 118 0 101.2 0C84.3 0 67.7 0 50.8 0C34 0 17 0 8.5 0L0 0Z" fill="#12592e"></path><path d="M0 108L8.5 105.3C17 102.7 34 97.3 50.8 97.8C67.7 98.3 84.3 104.7 101.2 104.8C118 105 135 99 151.8 95.8C168.7 92.7 185.3 92.3 202.2 92.5C219 92.7 236 93.3 252.8 93.8C269.7 94.3 286.3 94.7 303.2 94.2C320 93.7 337 92.3 353.8 92.2C370.7 92 387.3 93 404.2 97.3C421 101.7 438 109.3 454.8 107.8C471.7 106.3 488.3 95.7 505.2 91.5C522 87.3 539 89.7 555.8 93C572.7 96.3 589.3 100.7 606.2 99.3C623 98 640 91 656.8 91.7C673.7 92.3 690.3 100.7 707.2 103.2C724 105.7 741 102.3 757.8 99.3C774.7 96.3 791.3 93.7 808.2 96.2C825 98.7 842 106.3 858.8 105.3C875.7 104.3 892.3 94.7 909.2 89.2C926 83.7 943 82.3 951.5 81.7L960 81L960 0L951.5 0C943 0 926 0 909.2 0C892.3 0 875.7 0 858.8 0C842 0 825 0 808.2 0C791.3 0 774.7 0 757.8 0C741 0 724 0 707.2 0C690.3 0 673.7 0 656.8 0C640 0 623 0 606.2 0C589.3 0 572.7 0 555.8 0C539 0 522 0 505.2 0C488.3 0 471.7 0 454.8 0C438 0 421 0 404.2 0C387.3 0 370.7 0 353.8 0C337 0 320 0 303.2 0C286.3 0 269.7 0 252.8 0C236 0 219 0 202.2 0C185.3 0 168.7 0 151.8 0C135 0 118 0 101.2 0C84.3 0 67.7 0 50.8 0C34 0 17 0 8.5 0L0 0Z" fill="#127b59"></path><path d="M0 64L8.5 64.3C17 64.7 34 65.3 50.8 64.7C67.7 64 84.3 62 101.2 60.8C118 59.7 135 59.3 151.8 58.5C168.7 57.7 185.3 56.3 202.2 59.3C219 62.3 236 69.7 252.8 73.2C269.7 76.7 286.3 76.3 303.2 77.3C320 78.3 337 80.7 353.8 80.2C370.7 79.7 387.3 76.3 404.2 74.7C421 73 438 73 454.8 74.7C471.7 76.3 488.3 79.7 505.2 81C522 82.3 539 81.7 555.8 77.7C572.7 73.7 589.3 66.3 606.2 62.3C623 58.3 640 57.7 656.8 60.5C673.7 63.3 690.3 69.7 707.2 72.5C724 75.3 741 74.7 757.8 73.3C774.7 72 791.3 70 808.2 70.7C825 71.3 842 74.7 858.8 72.8C875.7 71 892.3 64 909.2 61.5C926 59 943 61 951.5 62L960 63L960 0L951.5 0C943 0 926 0 909.2 0C892.3 0 875.7 0 858.8 0C842 0 825 0 808.2 0C791.3 0 774.7 0 757.8 0C741 0 724 0 707.2 0C690.3 0 673.7 0 656.8 0C640 0 623 0 606.2 0C589.3 0 572.7 0 555.8 0C539 0 522 0 505.2 0C488.3 0 471.7 0 454.8 0C438 0 421 0 404.2 0C387.3 0 370.7 0 353.8 0C337 0 320 0 303.2 0C286.3 0 269.7 0 252.8 0C236 0 219 0 202.2 0C185.3 0 168.7 0 151.8 0C135 0 118 0 101.2 0C84.3 0 67.7 0 50.8 0C34 0 17 0 8.5 0L0 0Z" fill="#139e89"></path><path d="M0 40L8.5 38.5C17 37 34 34 50.8 32.2C67.7 30.3 84.3 29.7 101.2 30C118 30.3 135 31.7 151.8 32.7C168.7 33.7 185.3 34.3 202.2 33.5C219 32.7 236 30.3 252.8 29.8C269.7 29.3 286.3 30.7 303.2 33.5C320 36.3 337 40.7 353.8 43.7C370.7 46.7 387.3 48.3 404.2 48.2C421 48 438 46 454.8 43C471.7 40 488.3 36 505.2 33.5C522 31 539 30 555.8 31.2C572.7 32.3 589.3 35.7 606.2 35.7C623 35.7 640 32.3 656.8 34.3C673.7 36.3 690.3 43.7 707.2 44.2C724 44.7 741 38.3 757.8 35.5C774.7 32.7 791.3 33.3 808.2 33.7C825 34 842 34 858.8 33C875.7 32 892.3 30 909.2 29.5C926 29 943 30 951.5 30.5L960 31L960 0L951.5 0C943 0 926 0 909.2 0C892.3 0 875.7 0 858.8 0C842 0 825 0 808.2 0C791.3 0 774.7 0 757.8 0C741 0 724 0 707.2 0C690.3 0 673.7 0 656.8 0C640 0 623 0 606.2 0C589.3 0 572.7 0 555.8 0C539 0 522 0 505.2 0C488.3 0 471.7 0 454.8 0C438 0 421 0 404.2 0C387.3 0 370.7 0 353.8 0C337 0 320 0 303.2 0C286.3 0 269.7 0 252.8 0C236 0 219 0 202.2 0C185.3 0 168.7 0 151.8 0C135 0 118 0 101.2 0C84.3 0 67.7 0 50.8 0C34 0 17 0 8.5 0L0 0Z" fill="#25c1bc"></path></svg>