<svg id="visual" viewBox="0 0 960 200" width="960" height="200" xmlns="http://www.w3.org/2000/svg" xmlns:xlink="http://www.w3.org/1999/xlink" version="1.1"><rect x="0" y="0" width="960" height="200" fill="#202731"></rect><path d="M0 65L8.5 67.5C17 70 34 75 50.8 73.2C67.7 71.3 84.3 62.7 101.2 58.7C118 54.7 135 55.3 151.8 54.3C168.7 53.3 185.3 50.7 202.2 53.3C219 56 236 64 252.8 68.7C269.7 73.3 286.3 74.7 303.2 73.3C320 72 337 68 353.8 67.3C370.7 66.7 387.3 69.3 404.2 68.3C421 67.3 438 62.7 454.8 63.3C471.7 64 488.3 70 505.2 68.7C522 67.3 539 58.7 555.8 58.8C572.7 59 589.3 68 606.2 71C623 74 640 71 656.8 70.2C673.7 69.3 690.3 70.7 707.2 70.8C724 71 741 70 757.8 67.5C774.7 65 791.3 61 808.2 59.2C825 57.3 842 57.7 858.8 58.3C875.7 59 892.3 60 909.2 57.8C926 55.7 943 50.3 951.5 47.7L960 45L960 201L951.5 201C943 201 926 201 909.2 201C892.3 201 875.7 201 858.8 201C842 201 825 201 808.2 201C791.3 201 774.7 201 757.8 201C741 201 724 201 707.2 201C690.3 201 673.7 201 656.8 201C640 201 623 201 606.2 201C589.3 201 572.7 201 555.8 201C539 201 522 201 505.2 201C488.3 201 471.7 201 454.8 201C438 201 421 201 404.2 201C387.3 201 370.7 201 353.8 201C337 201 320 201 303.2 201C286.3 201 269.7 201 252.8 201C236 201 219 201 202.2 201C185.3 201 168.7 201 151.8 201C135 201 118 201 101.2 201C84.3 201 67.7 201 50.8 201C34 201 17 201 8.5 201L0 201Z" fill="#cf26e0"></path><path d="M0 79L8.5 82.3C17 85.7 34 92.3 50.8 93.5C67.7 94.7 84.3 90.3 101.2 86.5C118 82.7 135 79.3 151.8 77.2C168.7 75 185.3 74 202.2 76.3C219 78.7 236 84.3 252.8 86.8C269.7 89.3 286.3 88.7 303.2 87C320 85.3 337 82.7 353.8 81.8C370.7 81 387.3 82 404.2 80.3C421 78.7 438 74.3 454.8 74.7C471.7 75 488.3 80 505.2 84.8C522 89.7 539 94.3 555.8 94C572.7 93.7 589.3 88.3 606.2 86.2C623 84 640 85 656.8 84.8C673.7 84.7 690.3 83.3 707.2 81.7C724 80 741 78 757.8 78.7C774.7 79.3 791.3 82.7 808.2 84.5C825 86.3 842 86.7 858.8 85.8C875.7 85 892.3 83 909.2 83.3C926 83.7 943 86.3 951.5 87.7L960 89L960 201L951.5 201C943 201 926 201 909.2 201C892.3 201 875.7 201 858.8 201C842 201 825 201 808.2 201C791.3 201 774.7 201 757.8 201C741 201 724 201 707.2 201C690.3 201 673.7 201 656.8 201C640 201 623 201 606.2 201C589.3 201 572.7 201 555.8 201C539 201 522 201 505.2 201C488.3 201 471.7 201 454.8 201C438 201 421 201 404.2 201C387.3 201 370.7 201 353.8 201C337 201 320 201 303.2 201C286.3 201 269.7 201 252.8 201C236 201 219 201 202.2 201C185.3 201 168.7 201 151.8 201C135 201 118 201 101.2 201C84.3 201 67.7 201 50.8 201C34 201 17 201 8.5 201L0 201Z" fill="#b728db"></path><path d="M0 98L8.5 99.8C17 101.7 34 105.3 50.8 107.5C67.7 109.7 84.3 110.3 101.2 110.7C118 111 135 111 151.8 108.2C168.7 105.3 185.3 99.7 202.2 98.3C219 97 236 100 252.8 103.3C269.7 106.7 286.3 110.3 303.2 111.5C320 112.7 337 111.3 353.8 111.5C370.7 111.7 387.3 113.3 404.2 113.2C421 113 438 111 454.8 110.7C471.7 110.3 488.3 111.7 505.2 112.5C522 113.3 539 113.7 555.8 110.3C572.7 107 589.3 100 606.2 98.8C623 97.7 640 102.3 656.8 106C673.7 109.7 690.3 112.3 707.2 110.5C724 108.7 741 102.3 757.8 100.8C774.7 99.3 791.3 102.7 808.2 104.2C825 105.7 842 105.3 858.8 103.3C875.7 101.3 892.3 97.7 909.2 98.5C926 99.3 943 104.7 951.5 107.3L960 110L960 201L951.5 201C943 201 926 201 909.2 201C892.3 201 875.7 201 858.8 201C842 201 825 201 808.2 201C791.3 201 774.7 201 757.8 201C741 201 724 201 707.2 201C690.3 201 673.7 201 656.8 201C640 201 623 201 606.2 201C589.3 201 572.7 201 555.8 201C539 201 522 201 505.2 201C488.3 201 471.7 201 454.8 201C438 201 421 201 404.2 201C387.3 201 370.7 201 353.8 201C337 201 320 201 303.2 201C286.3 201 269.7 201 252.8 201C236 201 219 201 202.2 201C185.3 201 168.7 201 151.8 201C135 201 118 201 101.2 201C84.3 201 67.7 201 50.8 201C34 201 17 201 8.5 201L0 201Z" fill="#9e29d4"></path><path d="M0 134L8.5 132.2C17 130.3 34 126.7 50.8 123.8C67.7 121 84.3 119 101.2 118.8C118 118.7 135 120.3 151.8 122.7C168.7 125 185.3 128 202.2 127C219 126 236 121 252.8 121.5C269.7 122 286.3 128 303.2 129.7C320 131.3 337 128.7 353.8 129.5C370.7 130.3 387.3 134.7 404.2 134C421 133.3 438 127.7 454.8 127.2C471.7 126.7 488.3 131.3 505.2 133.3C522 135.3 539 134.7 555.8 132.2C572.7 129.7 589.3 125.3 606.2 126C623 126.7 640 132.3 656.8 134.7C673.7 137 690.3 136 707.2 133.5C724 131 741 127 757.8 127.7C774.7 128.3 791.3 133.7 808.2 133.2C825 132.7 842 126.3 858.8 122.3C875.7 118.3 892.3 116.7 909.2 117.3C926 118 943 121 951.5 122.5L960 124L960 201L951.5 201C943 201 926 201 909.2 201C892.3 201 875.7 201 858.8 201C842 201 825 201 808.2 201C791.3 201 774.7 201 757.8 201C741 201 724 201 707.2 201C690.3 201 673.7 201 656.8 201C640 201 623 201 606.2 201C589.3 201 572.7 201 555.8 201C539 201 522 201 505.2 201C488.3 201 471.7 201 454.8 201C438 201 421 201 404.2 201C387.3 201 370.7 201 353.8 201C337 201 320 201 303.2 201C286.3 201 269.7 201 252.8 201C236 201 219 201 202.2 201C185.3 201 168.7 201 151.8 201C135 201 118 201 101.2 201C84.3 201 67.7 201 50.8 201C34 201 17 201 8.5 201L0 201Z" fill="#8529ce"></path><path d="M0 151L8.5 150.8C17 150.7 34 150.3 50.8 149.3C67.7 148.3 84.3 146.7 101.2 144.8C118 143 135 141 151.8 142.8C168.7 144.7 185.3 150.3 202.2 152C219 153.7 236 151.3 252.8 149.8C269.7 148.3 286.3 147.7 303.2 147.3C320 147 337 147 353.8 148C370.7 149 387.3 151 404.2 150.3C421 149.7 438 146.3 454.8 146.3C471.7 146.3 488.3 149.7 505.2 149.5C522 149.3 539 145.7 555.8 146C572.7 146.3 589.3 150.7 606.2 151.7C623 152.7 640 150.3 656.8 150.7C673.7 151 690.3 154 707.2 155.5C724 157 741 157 757.8 156.3C774.7 155.7 791.3 154.3 808.2 154C825 153.7 842 154.3 858.8 153.2C875.7 152 892.3 149 909.2 149.5C926 150 943 154 951.5 156L960 158L960 201L951.5 201C943 201 926 201 909.2 201C892.3 201 875.7 201 858.8 201C842 201 825 201 808.2 201C791.3 201 774.7 201 757.8 201C741 201 724 201 707.2 201C690.3 201 673.7 201 656.8 201C640 201 623 201 606.2 201C589.3 201 572.7 201 555.8 201C539 201 522 201 505.2 201C488.3 201 471.7 201 454.8 201C438 201 421 201 404.2 201C387.3 201 370.7 201 353.8 201C337 201 320 201 303.2 201C286.3 201 269.7 201 252.8 201C236 201 219 201 202.2 201C185.3 201 168.7 201 151.8 201C135 201 118 201 101.2 201C84.3 201 67.7 201 50.8 201C34 201 17 201 8.5 201L0 201Z" fill="#6b29c6"></path><path d="M0 166L8.5 166.5C17 167 34 168 50.8 169.3C67.7 170.7 84.3 172.3 101.2 173.3C118 174.3 135 174.7 151.8 174.3C168.7 174 185.3 173 202.2 173C219 173 236 174 252.8 175C269.7 176 286.3 177 303.2 177.3C320 177.7 337 177.3 353.8 176.7C370.7 176 387.3 175 404.2 172.7C421 170.3 438 166.7 454.8 166.3C471.7 166 488.3 169 505.2 171.3C522 173.7 539 175.3 555.8 175.5C572.7 175.7 589.3 174.3 606.2 174C623 173.7 640 174.3 656.8 173C673.7 171.7 690.3 168.3 707.2 168.3C724 168.3 741 171.7 757.8 172.3C774.7 173 791.3 171 808.2 169.8C825 168.7 842 168.3 858.8 168.7C875.7 169 892.3 170 909.2 170.8C926 171.7 943 172.3 951.5 172.7L960 173L960 201L951.5 201C943 201 926 201 909.2 201C892.3 201 875.7 201 858.8 201C842 201 825 201 808.2 201C791.3 201 774.7 201 757.8 201C741 201 724 201 707.2 201C690.3 201 673.7 201 656.8 201C640 201 623 201 606.2 201C589.3 201 572.7 201 555.8 201C539 201 522 201 505.2 201C488.3 201 471.7 201 454.8 201C438 201 421 201 404.2 201C387.3 201 370.7 201 353.8 201C337 201 320 201 303.2 201C286.3 201 269.7 201 252.8 201C236 201 219 201 202.2 201C185.3 201 168.7 201 151.8 201C135 201 118 201 101.2 201C84.3 201 67.7 201 50.8 201C34 201 17 201 8.5 201L0 201Z" fill="#4d29be"></path></svg>